<svg width="48" height="120" viewBox="0 0 48 120" fill="none" xmlns="http://www.w3.org/2000/svg">
<g clip-path="url(#clip0_18_53)">
<rect width="12" height="12" fill="black"/>
<rect x="12" y="12" width="12" height="12" fill="black"/>
<rect y="24" width="12" height="12" fill="black"/>
<rect x="12" y="36" width="12" height="12" fill="black"/>
<rect x="12" y="60" width="12" height="12" fill="black"/>
<rect x="12" y="84" width="12" height="12" fill="black"/>
<rect y="48" width="12" height="12" fill="black"/>
<rect y="72" width="12" height="12" fill="black"/>
<rect y="96" width="12" height="12" fill="black"/>
<rect x="24" width="12" height="12" fill="black"/>
<rect x="36" y="12" width="12" height="12" fill="black"/>
<rect x="24" y="24" width="12" height="12" fill="black"/>
<rect x="36" y="36" width="12" height="12" fill="black"/>
<rect x="36" y="84" width="12" height="12" fill="black"/>
<rect x="36" y="60" width="12" height="12" fill="black"/>
<rect x="24" y="48" width="12" height="12" fill="black"/>
<rect x="24" y="72" width="12" height="12" fill="black"/>
<rect x="24" y="96" width="12" height="12" fill="black"/>
<rect x="12" width="12" height="12" fill="white"/>
<rect y="12" width="12" height="12" fill="white"/>
<rect x="12" y="24" width="12" height="12" fill="white"/>
<rect y="84" width="12" height="12" fill="white"/>
<rect y="36" width="12" height="12" fill="white"/>
<rect y="60" width="12" height="12" fill="white"/>
<rect x="12" y="48" width="12" height="12" fill="white"/>
<rect x="12" y="72" width="12" height="12" fill="white"/>
<rect x="12" y="96" width="12" height="12" fill="white"/>
<rect x="36" width="12" height="12" fill="white"/>
<rect x="24" y="12" width="12" height="12" fill="white"/>
<rect x="24" y="84" width="12" height="12" fill="white"/>
<rect x="36" y="24" width="12" height="12" fill="white"/>
<rect x="24" y="36" width="12" height="12" fill="white"/>
<rect x="24" y="60" width="12" height="12" fill="white"/>
<rect x="36" y="48" width="12" height="12" fill="white"/>
<rect x="36" y="72" width="12" height="12" fill="white"/>
<rect x="36" y="96" width="12" height="12" fill="white"/>
<rect x="12" y="108" width="12" height="12" fill="black"/>
<rect x="36" y="108" width="12" height="12" fill="black"/>
<rect y="108" width="12" height="12" fill="white"/>
<rect x="24" y="108" width="12" height="12" fill="white"/>
</g>
<defs>
<clipPath id="clip0_18_53">
<rect width="48" height="120" fill="white"/>
</clipPath>
</defs>
</svg>
